<?xml version="1.0" encoding="utf-8"?>
<!-- Generator: Adobe Illustrator 16.0.4, SVG Export Plug-In . SVG Version: 6.00 Build 0)  -->
<!DOCTYPE svg PUBLIC "-//W3C//DTD SVG 1.1//EN" "http://www.w3.org/Graphics/SVG/1.1/DTD/svg11.dtd">
<svg xmlns="http://www.w3.org/2000/svg" width = "1200" height = "800" className="flower">
          <path stroke='#CCFFF4' stroke-width="1.5"
           d="M 500 0
           l 0 350
           l -25 45
           l -35 -10
           l 10 35
           l -85 0
           l 85 35
           l -10 35
           l 35 -10
           l 25 85
           l 25 -85
           l 35 10
           l -10 -35
           l 85 -35
           l -85 0
           l 10 -35
           l -35 10
           L 500 350
           "

           fill="pink"
          />
          <text x="450" y="450" font-family="Inknut Antiqua" font-size="35" fill="#CCFFF4">
    CODE
  </text>

                    <path stroke='#CCFFF4' stroke-width="1.5"
           d="M 900 0
           l 0 125
           l -25 45
           l -35 -10
           l 10 35
           l -85 0
           l 85 35
           l -10 35
           l 35 -10
           l 25 85
           l 25 -85
           l 35 10
           l -10 -35
           l 85 -35
           l -85 0
           l 10 -35
           l -35 10
           L 900 125
           "

           fill="pink"
          />
   <text x="865" y="225" font-family="Inknut Antiqua" font-size="35" fill="#CCFFF4">
    ART
  </text>
  </svg>
